<svg id="Layer_1" data-name="Layer 1" xmlns="http://www.w3.org/2000/svg" viewBox="0 0 100 125"><defs><style>.cls-1{fill:#fff;}</style></defs><title>Artboard 1</title><path class="cls-1" d="M92.38,17.5H7.62A2.62,2.62,0,0,0,5,20.12v84.77a2.62,2.62,0,0,0,2.62,2.62H92.38A2.61,2.61,0,0,0,95,104.88V20.12A2.62,2.62,0,0,0,92.38,17.5ZM89.77,54.16H67a8.34,8.34,0,0,0-8.63-8.46v-23H89.77Zm0,11.44H64.92c-.13-.15-.25-.29-.39-.43l-2.59-2.59L64.53,60c.19-.19.37-.39.54-.6H89.77Zm-46,7.72a3.22,3.22,0,0,1-4.45,0,3.15,3.15,0,0,1,0-4.45l3-3a8.38,8.38,0,0,0,4.52,4.38ZM10.23,59.4H35.1c.17.2.35.4.54.6l2.59,2.59-2.59,2.59c-.14.14-.26.29-.39.43h-25Zm46.14-7.56a3.16,3.16,0,0,1,.48-.4l.15-.08a3.14,3.14,0,0,1,3.82,4.93l-3.1,3.1a8.38,8.38,0,0,0-4.39-4.52ZM50,65.6a3.1,3.1,0,1,1,3.11-3.1A3.11,3.11,0,0,1,50,65.6ZM43.79,51.84l3,3a8.39,8.39,0,0,0-4.45,4.45l-3-3a3.15,3.15,0,0,1,4.45-4.45ZM56.37,73.32l-3.14-3.14a8.38,8.38,0,0,0,4.45-4.45l3.14,3.14a3.15,3.15,0,0,1,0,4.45A3.22,3.22,0,0,1,56.37,73.32ZM53.11,22.73v25c-.15.13-.29.25-.43.39l-2.59,2.59-2.59-2.59c-.19-.19-.39-.37-.6-.54V22.73Zm-11.44,0v23a8.35,8.35,0,0,0-8.47,8.47h-23V22.73H41.66ZM10.23,70.84h23a8.23,8.23,0,0,0,8.46,8.56v22.87H10.23V70.84Zm36.66,31.43V77.56a7.91,7.91,0,0,0,.6-.54l2.59-2.59L52.67,77c.14.14.29.27.44.4v24.85H46.89Zm11.44,0V79.47h.26A8.37,8.37,0,0,0,67,70.84h22.8v31.43H58.34Z"/></svg>